<?xml version="1.0" encoding="UTF-8" standalone="no"?>
<svg
   xmlns:dc="http://purl.org/dc/elements/1.1/"
   xmlns:cc="http://creativecommons.org/ns#"
   xmlns:rdf="http://www.w3.org/1999/02/22-rdf-syntax-ns#"
   xmlns:svg="http://www.w3.org/2000/svg"
   xmlns="http://www.w3.org/2000/svg"
   xmlns:sodipodi="http://sodipodi.sourceforge.net/DTD/sodipodi-0.dtd"
   xmlns:inkscape="http://www.inkscape.org/namespaces/inkscape"
   inkscape:version="1.0 (4035a4fb49, 2020-05-01)"
   sodipodi:docname="album.svg"
   xml:space="preserve"
   viewBox="0 0 511.99999 512.00001"
   height="512"
   width="512"
   y="0px"
   x="0px"
   id="Capa_1"
   version="1.1"><metadata
   id="metadata995"><rdf:RDF><cc:Work
       rdf:about=""><dc:format>image/svg+xml</dc:format><dc:type
         rdf:resource="http://purl.org/dc/dcmitype/StillImage" /><dc:title></dc:title></cc:Work></rdf:RDF></metadata><defs
   id="defs993" /><sodipodi:namedview
   inkscape:current-layer="Capa_1"
   inkscape:window-maximized="1"
   inkscape:window-y="27"
   inkscape:window-x="0"
   inkscape:cy="252.43413"
   inkscape:cx="148.13219"
   inkscape:zoom="0.88737677"
   showgrid="false"
   id="namedview991"
   inkscape:window-height="1025"
   inkscape:window-width="1920"
   inkscape:pageshadow="2"
   inkscape:pageopacity="0"
   guidetolerance="10"
   gridtolerance="10"
   objecttolerance="10"
   borderopacity="1"
   bordercolor="#666666"
   pagecolor="#ffffff" />
<g
   transform="translate(22.788156,24.167191)"
   id="g958">
	<path
   id="path950"
   d="m 227.071,459.682 c 17.24,0 33.999,-1.984 50.145,-5.619 -7.883,-10.647 -12.587,-23.771 -12.587,-38.01 0,-35.394 28.785,-64.175 64.175,-64.175 2.797,0 5.582,0.184 8.348,0.553 v -89.606 c 0,-14.526 11.072,-25.912 25.194,-25.912 1.495,0 3.01,0.125 4.505,0.385 23.859,4.063 58.893,12.479 84.776,28.986 1.64,-10.988 2.497,-22.226 2.497,-33.671 C 454.124,107.201 352.472,5.543 227.055,5.543 101.644,5.542 0,107.208 0,232.612 c 0,125.397 101.66,227.07 227.071,227.07 z m 93.842,-229.969 c 0,51.834 -42.01,93.844 -93.842,93.844 -51.828,0 -93.844,-42.01 -93.844,-93.844 0,-51.828 42.016,-93.844 93.844,-93.844 51.832,0 93.842,42.024 93.842,93.844 z M 119.323,48.99 l 46.923,83.411 c 0,0 -28.45,14.523 -38.232,41.709 L 37.65,135.877 C 68.932,68.105 119.323,48.99 119.323,48.99 Z" />
	<path
   id="path952"
   d="m 392.978,319.297 c -0.008,15.485 -0.016,45.032 -0.06,68.335 14.734,-15.762 27.246,-33.614 37.044,-53.082 -0.132,-0.188 -0.2,-0.397 -0.341,-0.573 -5.97,-8.348 -18.549,-13.357 -36.643,-14.68 z" />
	<path
   id="path954"
   d="m 227.94,207.129 c 10.077,0 18.242,8.167 18.242,18.246 0,10.075 -8.165,18.238 -18.242,18.238 -10.072,0 -18.242,-8.163 -18.242,-18.238 0,-10.079 8.17,-18.246 18.242,-18.246 z" />
	<path
   id="path956"
   d="m 365.151,247.36 c -0.954,-0.161 -1.888,-0.237 -2.794,-0.237 -8.476,0 -14.995,6.741 -14.995,15.701 v 102.591 c -5.795,-2.129 -12.026,-3.343 -18.551,-3.343 -29.807,0 -53.972,24.165 -53.972,53.972 0,13.502 4.997,25.82 13.2,35.282 9.891,11.421 24.474,18.69 40.779,18.69 21.841,0 40.64,-12.973 49.131,-31.631 4.112,-9.032 4.709,-25.331 4.741,-35.266 0.008,-1.654 0.008,-3.434 0.017,-5.245 0.092,-32.905 0.092,-89.157 0.092,-89.157 27.274,0 43.144,6.436 51.984,15.652 13.77,14.352 10.371,35.526 5.406,50.138 -1.844,5.43 -1.996,8.251 -0.485,8.251 1.099,0 3.073,-1.503 5.903,-4.593 45.384,-49.428 32.864,-81.058 4.163,-101.035 -25.145,-17.48 -62.65,-26.035 -84.619,-29.77 z" />
</g>
<g
   id="g960">
</g>
<g
   id="g962">
</g>
<g
   id="g964">
</g>
<g
   id="g966">
</g>
<g
   id="g968">
</g>
<g
   id="g970">
</g>
<g
   id="g972">
</g>
<g
   id="g974">
</g>
<g
   id="g976">
</g>
<g
   id="g978">
</g>
<g
   id="g980">
</g>
<g
   id="g982">
</g>
<g
   id="g984">
</g>
<g
   id="g986">
</g>
<g
   id="g988">
</g>
</svg>
